<?xml version="1.0" encoding="UTF-8" standalone="no"?>
<svg
   width="205.24413"
   height="231.18359"
   fill="none"
   version="1.1"
   id="svg12"
   sodipodi:docname="tauri_with_wordmark.svg"
   inkscape:version="1.1.2 (0a00cf5339, 2022-02-04, custom)"
   xmlns:inkscape="http://www.inkscape.org/namespaces/inkscape"
   xmlns:sodipodi="http://sodipodi.sourceforge.net/DTD/sodipodi-0.dtd"
   xmlns="http://www.w3.org/2000/svg"
   xmlns:svg="http://www.w3.org/2000/svg">
  <defs
     id="defs16" />
  <sodipodi:namedview
     id="namedview14"
     pagecolor="#ffffff"
     bordercolor="#666666"
     borderopacity="1.0"
     inkscape:pageshadow="2"
     inkscape:pageopacity="0.0"
     inkscape:pagecheckerboard="0"
     showgrid="false"
     fit-margin-top="0"
     fit-margin-left="0"
     fit-margin-right="0"
     fit-margin-bottom="0"
     inkscape:zoom="0.73232661"
     inkscape:cx="387.80511"
     inkscape:cy="200.04735"
     inkscape:window-width="1900"
     inkscape:window-height="982"
     inkscape:window-x="10"
     inkscape:window-y="48"
     inkscape:window-maximized="1"
     inkscape:current-layer="svg12" />
  <path
     d="m 143.10954,84.132117 a 22,22 0 1 1 -43.999996,0 22,22 0 0 1 43.999996,0 z"
     fill="#ffc131"
     id="path4" />
  <circle
     cx="-84.109543"
     cy="-147.13211"
     transform="scale(-1)"
     fill="#24c8db"
     r="22"
     id="circle6" />
  <path
     fill-rule="evenodd"
     clip-rule="evenodd"
     d="m 166.70954,154.63212 a 84,84 0 0 1 -29,11.8 59,59 0 0 0 2.9,-26.6 59,59 0 1 0 -67.399996,-90.100003 98,98 0 0 0 -32.2,9.4 84,84 0 1 1 125.699996,95.500003 z M 42.009544,74.432117 l 20.6,2.5 a 59,59 0 0 1 2.6,-11.7 84,84 0 0 0 -23.2,9.2 z"
     fill="#ffc131"
     id="path8" />
  <path
     fill-rule="evenodd"
     clip-rule="evenodd"
     d="m 38.409544,76.632117 a 84,84 0 0 1 29.2,-11.9 58.9,58.9 0 0 0 -3.3,26.7 59,59 0 1 0 67.699996,90.000003 98,98 0 0 0 32.2,-9.3 A 84,84 0 1 1 38.409544,76.632117 Z m 124.699996,80.200003 -0.4,0.2 z"
     fill="#24c8db"
     id="path10" />
</svg>
